<svg width="220" height="36" viewBox="0 0 220 36" fill="none" xmlns="http://www.w3.org/2000/svg">
<g clip-path="url(#clip0_503_171)">
<g clip-path="url(#clip1_503_171)">
<path fill-rule="evenodd" clip-rule="evenodd" d="M24 3.75H3.75V27C3.75 29.8995 6.1005 32.25 9 32.25H29.25V9C29.25 6.1005 26.8995 3.75 24 3.75ZM0 0V27C0 31.9706 4.02944 36 9 36H33V9C33 4.02944 28.9706 0 24 0H0Z" fill="#FBD84B"/>
<path d="M18.06 13.1926C20.06 13.1926 21.67 13.7808 22.89 14.9572C24.13 16.1335 24.75 17.8785 24.75 20.192V28.5H20.07V20.8978C20.07 19.643 19.79 18.7117 19.23 18.104C18.67 17.4766 17.86 17.1629 16.8 17.1629C15.62 17.1629 14.68 17.5256 13.98 18.251C13.28 18.9568 12.93 20.0155 12.93 21.4272V28.5H8.25V7.5H12.93V15.0748C13.55 14.467 14.3 14.0063 15.18 13.6926C16.06 13.3593 17.02 13.1926 18.06 13.1926Z" fill="white"/>
<path d="M61.4002 10.2001V27.0001H57.5122V20.1121H49.8802V27.0001H45.9922V10.2001H49.8802V16.8241H57.5122V10.2001H61.4002ZM75.439 21.0481V27.0001H71.551V21.0001L65.047 10.2001H69.175L73.663 17.6641L78.151 10.2001H81.967L75.439 21.0481ZM92.7017 10.2001C94.1897 10.2001 95.4777 10.4481 96.5657 10.9441C97.6697 11.4401 98.5177 12.1441 99.1097 13.0561C99.7017 13.9681 99.9977 15.0481 99.9977 16.2961C99.9977 17.5281 99.7017 18.6081 99.1097 19.5361C98.5177 20.4481 97.6697 21.1521 96.5657 21.6481C95.4777 22.1281 94.1897 22.3681 92.7017 22.3681H89.3177V27.0001H85.4297V10.2001H92.7017ZM92.4857 19.2001C93.6537 19.2001 94.5417 18.9521 95.1497 18.4561C95.7577 17.9441 96.0617 17.2241 96.0617 16.2961C96.0617 15.3521 95.7577 14.6321 95.1497 14.1361C94.5417 13.6241 93.6537 13.3681 92.4857 13.3681H89.3177V19.2001H92.4857ZM117.781 23.8801V27.0001H104.773V10.2001H117.469V13.3201H108.637V16.9681H116.437V19.9921H108.637V23.8801H117.781ZM133.579 27.0001L130.339 22.3201H130.147H126.763V27.0001H122.875V10.2001H130.147C131.635 10.2001 132.923 10.4481 134.011 10.9441C135.115 11.4401 135.963 12.1441 136.555 13.0561C137.147 13.9681 137.443 15.0481 137.443 16.2961C137.443 17.5441 137.139 18.6241 136.531 19.5361C135.939 20.4321 135.091 21.1201 133.987 21.6001L137.755 27.0001H133.579ZM133.507 16.2961C133.507 15.3521 133.203 14.6321 132.595 14.1361C131.987 13.6241 131.099 13.3681 129.931 13.3681H126.763V19.2241H129.931C131.099 19.2241 131.987 18.9681 132.595 18.4561C133.203 17.9441 133.507 17.2241 133.507 16.2961ZM155.531 23.8801V27.0001H142.523V10.2001H155.219V13.3201H146.387V16.9681H154.187V19.9921H146.387V23.8801H155.531ZM171.329 27.0001L168.089 22.3201H167.897H164.513V27.0001H160.625V10.2001H167.897C169.385 10.2001 170.673 10.4481 171.761 10.9441C172.865 11.4401 173.713 12.1441 174.305 13.0561C174.897 13.9681 175.193 15.0481 175.193 16.2961C175.193 17.5441 174.889 18.6241 174.281 19.5361C173.689 20.4321 172.841 21.1201 171.737 21.6001L175.505 27.0001H171.329ZM171.257 16.2961C171.257 15.3521 170.953 14.6321 170.345 14.1361C169.737 13.6241 168.849 13.3681 167.681 13.3681H164.513V19.2241H167.681C168.849 19.2241 169.737 18.9681 170.345 18.4561C170.953 17.9441 171.257 17.2241 171.257 16.2961ZM191.625 18.3361H195.177V25.1521C194.265 25.8401 193.209 26.3681 192.009 26.7361C190.809 27.1041 189.601 27.2881 188.385 27.2881C186.641 27.2881 185.073 26.9201 183.681 26.1841C182.289 25.4321 181.193 24.4001 180.393 23.0881C179.609 21.7601 179.217 20.2641 179.217 18.6001C179.217 16.9361 179.609 15.4481 180.393 14.1361C181.193 12.8081 182.297 11.7761 183.705 11.0401C185.113 10.2881 186.697 9.91211 188.457 9.91211C189.929 9.91211 191.265 10.1601 192.465 10.6561C193.665 11.1521 194.673 11.8721 195.489 12.8161L192.993 15.1201C191.793 13.8561 190.345 13.2241 188.649 13.2241C187.577 13.2241 186.625 13.4481 185.793 13.8961C184.961 14.3441 184.313 14.9761 183.849 15.7921C183.385 16.6081 183.153 17.5441 183.153 18.6001C183.153 19.6401 183.385 20.5681 183.849 21.3841C184.313 22.2001 184.953 22.8401 185.769 23.3041C186.601 23.7521 187.545 23.9761 188.601 23.9761C189.721 23.9761 190.729 23.7361 191.625 23.2561V18.3361ZM208.925 27.2881C207.181 27.2881 205.605 26.9121 204.197 26.1601C202.805 25.4081 201.709 24.3761 200.909 23.0641C200.125 21.7361 199.733 20.2481 199.733 18.6001C199.733 16.9521 200.125 15.4721 200.909 14.1601C201.709 12.8321 202.805 11.7921 204.197 11.0401C205.605 10.2881 207.181 9.91211 208.925 9.91211C210.669 9.91211 212.237 10.2881 213.629 11.0401C215.021 11.7921 216.117 12.8321 216.917 14.1601C217.717 15.4721 218.117 16.9521 218.117 18.6001C218.117 20.2481 217.717 21.7361 216.917 23.0641C216.117 24.3761 215.021 25.4081 213.629 26.1601C212.237 26.9121 210.669 27.2881 208.925 27.2881ZM208.925 23.9761C209.917 23.9761 210.813 23.7521 211.613 23.3041C212.413 22.8401 213.037 22.2001 213.485 21.3841C213.949 20.5681 214.181 19.6401 214.181 18.6001C214.181 17.5601 213.949 16.6321 213.485 15.8161C213.037 15.0001 212.413 14.3681 211.613 13.9201C210.813 13.4561 209.917 13.2241 208.925 13.2241C207.933 13.2241 207.037 13.4561 206.237 13.9201C205.437 14.3681 204.805 15.0001 204.341 15.8161C203.893 16.6321 203.669 17.5601 203.669 18.6001C203.669 19.6401 203.893 20.5681 204.341 21.3841C204.805 22.2001 205.437 22.8401 206.237 23.3041C207.037 23.7521 207.933 23.9761 208.925 23.9761Z" fill="white"/>
</g>
</g>
<defs>
<clipPath id="clip0_503_171">
<rect width="220" height="36" fill="white"/>
</clipPath>
<clipPath id="clip1_503_171">
<rect width="220" height="36" fill="white"/>
</clipPath>
</defs>
</svg>
